Coordinates
version=1
nRows=26
nColumns=22
inDegrees=yes

Units are S.I. units (second, meters, Newtons, ...)
If the header above contains a line with 'inDegrees', this indicates whether rotational values are in degrees (yes) or radians (no).

endheader
time	pelvis_tilt	pelvis_list	pelvis_rotation	pelvis_tx	pelvis_ty	pelvis_tz	hip_flexion_r	hip_adduction_r	hip_rotation_r	knee_angle_r	ankle_angle_r	subtalar_angle_r	hip_flexion_l	hip_adduction_l	hip_rotation_l	knee_angle_l	ankle_angle_l	subtalar_angle_l	lumbar_extension	lumbar_bending	lumbar_rotation
      2.29000000	      1.06236359	     -1.85900739	     -2.58376426	      0.77509846	      0.90458979	      0.08201440	     20.95307521	      4.38056702	     -3.00811498	    -15.54381540	    -20.94826307	    -13.96428978	     -0.56673737	     -0.94051687	     -1.56713820	    -40.89468419	      7.90980363	     -2.16687341	     -9.78453915	     -2.53114981	     -4.00790685
      2.30000000	      1.05171203	     -1.66865486	     -2.66205832	      0.76570342	      0.90401075	      0.08085861	     21.59007803	      4.02533568	     -2.83057981	    -15.32158608	    -22.17432229	    -13.04720940	     -0.41290187	     -0.65287817	     -1.85885941	    -40.29420851	      9.24575761	     -2.67414983	     -9.97845980	     -2.73430080	     -4.11838973
      2.31000000	      1.04298092	     -1.47869808	     -2.75783370	      0.75633178	      0.90353512	      0.07974767	     22.18522281	      3.67237519	     -2.57170813	    -15.04122942	    -23.52772455	    -12.20203838	     -0.27128690	     -0.37482209	     -2.19287403	    -39.63892292	     10.45911405	     -3.06433229	    -10.16563394	     -2.93734076	     -4.21439704
      2.32000000	      1.06008907	     -1.24722927	     -2.87147758	      0.74706304	      0.90314601	      0.07861958	     22.76463618	      3.26571286	     -2.27752352	    -14.85722661	    -24.72370727	    -11.22144984	     -0.20706621	     -0.02871512	     -2.49749976	    -38.86062141	     11.64687127	     -3.48064835	    -10.36034893	     -3.18149280	     -4.28693332
      2.33000000	      1.08737321	     -1.01536375	     -3.00496297	      0.73790034	      0.90281308	      0.07754046	     23.31285407	      2.86289456	     -1.89853632	    -14.73648053	    -25.86578021	    -10.49042995	     -0.17274505	      0.32306562	     -2.81623489	    -38.02646887	     12.70871075	     -3.88161453	    -10.54600825	     -3.42510372	     -4.33795067
      2.34000000	      1.12689160	     -0.78665757	     -3.14224739	      0.72891315	      0.90252920	      0.07648963	     23.83471899	      2.45887776	     -1.48169896	    -14.75610357	    -26.77917472	    -10.01272033	     -0.17714038	      0.68501614	     -3.11462856	    -37.13108687	     13.68826711	     -4.31536497	    -10.71519913	     -3.66391136	     -4.36293812
      2.35000000	      1.17605699	     -0.58179549	     -3.28711916	      0.72013765	      0.90229825	      0.07549457	     24.33177126	      2.08043991	     -1.01462029	    -14.96730973	    -27.38661746	     -9.90054218	     -0.21476265	      1.03249431	     -3.40155258	    -36.19153708	     14.57450697	     -4.73829816	    -10.86073358	     -3.87563018	     -4.35446670
      2.36000000	      1.24535072	     -0.42942266	     -3.43060260	      0.71153107	      0.90212048	      0.07457245	     24.81975445	      1.75551805	     -0.51365285	    -15.47264825	    -27.57130292	    -10.09354824	     -0.26321629	      1.32536043	     -3.69447034	    -35.27585610	     15.39592087	     -5.27878504	    -11.00673013	     -4.03054952	     -4.31868061
      2.37000000	      1.33196575	     -0.32763467	     -3.57302531	      0.70313167	      0.90203665	      0.07369287	     25.28610857	      1.48161350	     -0.02189056	    -16.27581436	    -27.35230771	    -10.73775056	     -0.32307846	      1.56967172	     -3.99038639	    -34.38095385	     16.13583111	     -5.91490654	    -11.14333677	     -4.12546535	     -4.23926660
      2.38000000	      1.44294772	     -0.27423916	     -3.72469707	      0.69494670	      0.90208339	      0.07290935	     25.71103653	      1.27132949	      0.49309981	    -17.38328914	    -26.65993665	    -11.67511405	     -0.40750906	      1.76196476	     -4.29662175	    -33.49772393	     16.77879474	     -6.50164871	    -11.27782166	     -4.17408135	     -4.10671019
      2.39000000	      1.58519038	     -0.27629243	     -3.86309711	      0.68694146	      0.90227996	      0.07217936	     26.07924761	      1.12395881	      0.98702634	    -18.78859429	    -25.53555637	    -12.75246205	     -0.50105547	      1.88936356	     -4.59973416	    -32.66891790	     17.33964024	     -7.06046999	    -11.42886592	     -4.16389076	     -3.94363838
      2.40000000	      1.75597458	     -0.32824345	     -3.97762192	      0.67912350	      0.90264684	      0.07147023	     26.37336701	      1.03107272	      1.43278332	    -20.44984746	    -24.05871838	    -13.80638401	     -0.59887811	      1.95366575	     -4.89954895	    -31.89846752	     17.83400541	     -7.56593510	    -11.59181950	     -4.09415182	     -3.78581389
      2.41000000	      1.94593036	     -0.40302472	     -4.08034643	      0.67146495	      0.90320380	      0.07083901	     26.59405202	      0.97876908	      1.86221533	    -22.32808348	    -22.29150253	    -14.51435345	     -0.70186765	      1.98301473	     -5.17400659	    -31.15508291	     18.22231166	     -7.93642959	    -11.76088332	     -4.01515386	     -3.58582453
      2.42000000	      2.14614842	     -0.50847423	     -4.15150288	      0.66400065	      0.90394033	      0.07019072	     26.73338168	      0.95788571	      2.22086224	    -24.37662605	    -20.31918677	    -14.91318626	     -0.79719309	      1.97024298	     -5.40746715	    -30.45562008	     18.54859312	     -8.22206122	    -11.91827650	     -3.89257133	     -3.39697578
      2.43000000	      2.34029316	     -0.64384212	     -4.18117581	      0.65670091	      0.90484962	      0.06956946	     26.79292888	      0.97028422	      2.51248595	    -26.53927042	    -18.20102460	    -14.91184780	     -0.86857291	      1.90842536	     -5.58678135	    -29.79302489	     18.80863222	     -8.40414897	    -12.05165037	     -3.73940000	     -3.22634671
      2.44000000	      2.52061466	     -0.76993647	     -4.18462315	      0.64954852	      0.90590293	      0.06896899	     26.79217385	      0.97985369	      2.75715483	    -28.80025825	    -15.98424679	    -14.52491410	     -0.90948744	      1.84320691	     -5.72315977	    -29.15832319	     18.96650930	     -8.54687547	    -12.15077291	     -3.59935313	     -3.06986841
      2.45000000	      2.65820093	     -0.90726497	     -4.15734773	      0.64254146	      0.90705476	      0.06838834	     26.74573366	      1.00598379	      2.96177405	    -31.10435935	    -13.74413203	    -13.51183484	     -0.88686470	      1.74778874	     -5.81809747	    -28.56277125	     19.02632578	     -8.67950341	    -12.17940701	     -3.44086723	     -2.94098479
      2.46000000	      2.75648343	     -1.03348415	     -4.09797666	      0.63566542	      0.90827965	      0.06782535	     26.65331797	      1.02420353	      3.12167858	    -33.42936052	    -11.48160603	    -12.21905823	     -0.80986269	      1.65286111	     -5.84653985	    -27.99175825	     18.99007796	     -8.73198346	    -12.14443541	     -3.29359864	     -2.83607938
      2.47000000	      2.80349683	     -1.15323176	     -4.01329054	      0.62891845	      0.90953688	      0.06731028	     26.52334977	      1.04303778	      3.24580491	    -35.74507451	     -9.23480346	    -10.59759394	     -0.66614588	      1.55071371	     -5.82264113	    -27.44822594	     18.87013853	     -8.77391019	    -12.02924579	     -3.15601858	     -2.75192354
      2.48000000	      2.80382400	     -1.25791644	     -3.91175481	      0.62228539	      0.91079946	      0.06681629	     26.35372184	      1.05134025	      3.33968202	    -38.03154109	     -7.04521629	     -8.69055583	     -0.45820364	      1.45451643	     -5.76917198	    -26.93598877	     18.66496909	     -8.81390125	    -11.84159282	     -3.02819930	     -2.68602327
      2.49000000	      2.76325387	     -1.34759781	     -3.80259237	      0.61577438	      0.91204963	      0.06639092	     26.13140510	      1.05704813	      3.41941488	    -40.26091700	     -4.92359958	     -6.58579864	     -0.20377599	      1.36742003	     -5.68522955	    -26.43766660	     18.40947908	     -8.85436702	    -11.58562709	     -2.92058323	     -2.62751499
      2.50000000	      2.69468951	     -1.41115730	     -3.69062201	      0.60937306	      0.91327925	      0.06603292	     25.84337975	      1.04419097	      3.48310309	    -42.41508941	     -2.91013347	     -4.36998850	      0.08636109	      1.29992710	     -5.59757745	    -25.95849309	     18.07630169	     -8.89385053	    -11.27869091	     -2.84576180	     -2.57026867
      2.51000000	      2.60420023	     -1.46119273	     -3.57996748	      0.60307842	      0.91447333	      0.06573801	     25.47283078	      1.02704065	      3.53862850	    -44.46245440	     -1.04377112	     -2.11905099	      0.40008084	      1.23943748	     -5.52658499	    -25.49181727	     17.72399432	     -8.93286539	    -10.93114916	     -2.78750351	     -2.50730950
      2.52000000	      2.50113696	     -1.47718869	     -3.47572846	      0.59688367	      0.91563535	      0.06553295	     25.00950460	      0.98412310	      3.58756695	    -46.38587463	      0.63408650	     -0.00743084	      0.71875287	      1.20929455	     -5.46355934	    -25.01821867	     17.30699663	     -8.96508104	    -10.55153604	     -2.77587524	     -2.43861043
      2.53000000	      2.39155647	     -1.46806271	     -3.37035687	      0.59075001	      0.91674678	      0.06537734	     24.44532155	      0.91894256	      3.62638234	    -48.16757780	      2.07081582	      1.87997957	      1.04459912	      1.19871808	     -5.42419602	    -24.55079122	     16.87372818	     -8.99182343	    -10.15890972	     -2.79453192	     -2.34937123
      2.54000000	      2.27717811	     -1.43601310	     -3.26892463	      0.58467922	      0.91780091	      0.06528803	     23.77464922	      0.83666857	      3.65703322	    -49.78964198	      3.23508045	      3.41714945	      1.37459116	      1.20445111	     -5.41119903	    -24.08952388	     16.42314763	     -9.01148575	     -9.75375762	     -2.84261754	     -2.25530239
